<svg version="1" xmlns="http://www.w3.org/2000/svg" width="693.333" height="693.333" viewBox="0 0 520.000000 520.000000"><path d="M219.1 119.6l-41.3 41.7 40.8 40.8c22.5 22.5 41.3 40.9 41.9 40.9.6 0 19.5-18.5 42-41l41-41-41.6-41.6-41.5-41.5-41.3 41.7zM118.5 219l-41 41 41.5 41.5 41.5 41.5 41.2-41.2 41.3-41.3-41.2-41.2C179.1 196.6 160.3 178 160 178c-.3 0-19 18.5-41.5 41zM318.6 218.9l-41 41 32.1 32.8c17.7 18 36.2 36.8 41.2 41.8l9.1 9 25.1-25c13.8-13.8 32.3-32.6 41.1-41.8l16.2-16.8-41-41C378.9 196.4 360.3 178 360 178c-.3 0-18.9 18.4-41.4 40.9zM219.2 319.3L178 360.5l41.3 41.3 41.2 41.2 41.3-41.3 41.2-41.2-41.3-41.3-41.2-41.2-41.3 41.3z"/></svg>